<?xml version="1.0" encoding="UTF-8"?>
<svg xmlns="http://www.w3.org/2000/svg" viewBox="0 0 512 512" width="512" height="512">
  <circle cx="256" cy="256" r="256" fill="#DAE2D5"/>
  <g transform="translate(56,56) scale(0.78)">
    <path d="M0 0 C4.55447066 1.69468676 5.90115067 4.34189326 7.95812988 8.60671997 C9.86950313 12.9973358 11.30608918 17.53309508 12.765625 22.08984375 C13.11651688 23.16764099 13.46740875 24.24543823 13.82893372 25.355896 C14.97518564 28.88121443 16.11263358 32.40930592 17.25 35.9375 C18.04422969 38.38602178 18.83907767 40.83434308 19.63452148 43.2824707 C21.06727946 47.69382727 22.49826716 52.10574565 23.92646313 56.51858044 C26.5038744 64.48121805 29.10092981 72.43733132 31.70703125 80.390625 C32.07776764 81.52258804 32.44850403 82.65455109 32.83047485 83.82081604 C34.25777949 88.17868577 35.68518999 92.53652045 37.11364746 96.89401245 C38.08884685 99.87030399 39.06223737 102.84718109 40.03515625 105.82421875 C40.32284378 106.70084167 40.61053131 107.5774646 40.90693665 108.48065186 C41.16975937 109.28585266 41.43258209 110.09105347 41.70336914 110.9206543 C41.93109512 111.61636032 42.15882111 112.31206635 42.39344788 113.02885437 C42.59361008 113.67933243 42.79377228 114.32981049 43 115 C43.26212847 115.83319386 43.26212847 115.83319386 43.52955246 116.68321991 C44.16831303 119.8288794 44.1294776 122.8292005 44.13371277 126.03962708 C44.13597833 126.74864392 44.13824388 127.45766077 44.14057809 128.18816298 C44.14690827 130.56401649 44.14608935 132.93981282 44.14526367 135.31567383 C44.1482558 137.01917088 44.15165845 138.72266724 44.15544128 140.42616272 C44.16428063 145.05435106 44.16661939 149.68252091 44.16725707 154.31071687 C44.16820658 158.17494518 44.17188543 162.03916918 44.17542917 165.90339583 C44.18357369 175.02161832 44.18601343 184.13983093 44.18530273 193.25805664 C44.18470212 202.66131313 44.19525071 212.06451222 44.2110464 221.46775419 C44.22412689 229.54261476 44.22948641 237.61745659 44.22884732 245.69232768 C44.22859246 250.51425899 44.23143717 255.33613932 44.24202538 260.15806007 C44.25171474 264.69459495 44.25177976 269.23103018 44.24450874 273.76756859 C44.24346391 275.43040487 44.24581981 277.09324739 44.2518692 278.756073 C44.25960657 281.03063927 44.25493293 283.30486291 44.24723816 285.579422 C44.24778293 286.85091001 44.24832769 288.12239801 44.24888897 289.43241596 C43.86061493 294.99795092 42.91180131 299.73031132 38.8671875 303.71630859 C38.23312988 304.35321625 37.59907227 304.9901239 36.94580078 305.64633179 C36.26243652 306.30702667 35.57907227 306.96772156 34.875 307.6484375 C34.1722998 308.34643463 33.46959961 309.04443176 32.74560547 309.76358032 C30.50854539 311.97937144 28.2544217 314.17689071 26 316.375 C24.48328496 317.87520085 22.96764756 319.37649202 21.453125 320.87890625 C18.68584607 323.61227019 15.91824727 326.34518876 13.1328125 329.06005859 C12.57480957 329.60520111 12.01680664 330.15034363 11.44189453 330.71200562 C8.14444354 333.65750424 4.72194625 333.38386963 0.484375 333.359375 C-2 333 -2 333 -5.0625 330.625 C-7.76135044 326.96849296 -8.16600919 324.81611496 -8.42578125 320.265625 C-7.34049253 314.4906942 -2.92884104 310.87792531 1.5174408 307.46690369 C12.58425777 298.4613775 21.27600726 290.02015819 22.92969608 275.32647038 C23.51007772 268.06519874 23.5940174 260.81732029 23.5201962 253.53691602 C23.49806802 250.01118882 23.55010964 246.48791596 23.60024494 242.96259254 C23.71694358 234.61755439 23.71046916 226.27905611 23.62329102 217.93383789 C23.54608226 210.3625832 23.60951501 202.80850799 23.80786133 195.23950195 C27.06276293 149.5349522 27.06276293 149.5349522 10.28533459 109.10547924 C4.29701341 102.87642858 -2.44267066 97.67919384 -9.80018616 93.17320251 C-13.99683166 90.32298653 -13.99683166 90.32298653 -15 87 C-15.42556948 82.04388878 -14.65591243 78.80349272 -11.5 74.9375 C-8.18693051 72.62475343 -5.10409886 72.47573195 -1.1484375 72.53125 C1.48355734 73.10550342 2.90534342 74.34883391 5 76 C3.01996427 68.41156753 0.73137225 60.98204644 -1.79296875 53.55859375 C-2.51309498 51.40714364 -3.23247379 49.25544323 -3.95117188 47.10351562 C-5.0699073 43.76156703 -6.19299066 40.42137333 -7.32885742 37.08520508 C-8.43484933 33.83078388 -9.52161447 30.5704439 -10.60546875 27.30859375 C-10.94603806 26.32289902 -11.28660736 25.33720428 -11.63749695 24.32164001 C-13.62259317 18.28449305 -15.07220329 12.37635164 -14 6 C-9.77546995 0.55257968 -6.76988121 -0.458975 0 0 Z " fill="#3F5944" transform="translate(192,151)"/>
    <path d="M0 0 C4.64749128 3.26313218 5.86750723 6.55021084 7 12 C6.54370117 15.40795898 6.54370117 15.40795898 5.54296875 18.99609375 C5.36457458 19.65490036 5.18618042 20.31370697 5.00238037 20.99247742 C4.4146077 23.14598414 3.8014298 25.29131874 3.1875 27.4375 C2.77327036 28.93495605 2.36061285 30.4328478 1.94946289 31.93115234 C0.87315084 35.83542003 -0.22527848 39.73309689 -1.32983398 43.62945557 C-2.4339726 47.53506937 -3.52044313 51.44559396 -4.609375 55.35546875 C-6.71729618 62.91002537 -8.85050069 70.45716961 -11 78 C-10.67 78.33 -10.34 78.66 -10 79 C-9.59910156 78.566875 -9.19820313 78.13375 -8.78515625 77.6875 C-5.49268514 74.46222218 -3.09096178 72.54878754 1.625 72.375 C5.8151217 72.67480428 8.11294734 73.85048801 11 77 C13.26206116 80.75834334 13.29403463 83.41143282 12.68701172 87.67626953 C11.43660268 91.90562037 8.61945261 94.39362405 5.5625 97.4375 C4.93411854 98.09056877 4.30573708 98.74363754 3.65831375 99.41649628 C0.0647881 103.11341649 -3.49857232 106.45855176 -7.67974854 109.48278809 C-15.5690545 115.54167855 -21.28902494 121.62661374 -22.75402832 131.76318359 C-23.77022742 140.49532638 -23.73701033 149.30667337 -23.68131161 158.08524132 C-23.66856229 161.64324058 -23.71046314 165.19984148 -23.75102162 168.75756884 C-23.84520695 177.17220075 -23.8455213 185.58320272 -23.78613281 193.99804688 C-23.72705955 202.60625793 -23.8286506 211.2018826 -24.01034617 219.80809736 C-24.16172275 227.2610077 -24.20940872 234.70998805 -24.1783669 242.16436052 C-24.16096471 246.58928255 -24.17930235 251.00554217 -24.29915619 255.42906189 C-24.70078832 271.63880195 -24.82767812 285.40218465 -13.34594369 297.85078669 C-8.89403737 302.40295931 -4.12931525 306.62999198 0.8906703 310.54689503 C3.73874693 312.7795271 5.81705578 314.52769433 7 318 C7.4785596 322.94511588 7.52320037 325.04079932 5.125 329.4375 C2.94348901 332.06814561 2.18166769 332.80671607 -1.1015625 333.34375 C-2.35066406 333.42109375 -2.35066406 333.42109375 -3.625 333.5 C-4.44226563 333.5721875 -5.25953125 333.644375 -6.1015625 333.71875 C-10.83074986 332.54601351 -13.56818722 329.34718708 -17 326 C-17.72848145 325.29142853 -17.72848145 325.29142853 -18.47167969 324.56854248 C-21.89428829 321.23073653 -25.28262607 317.85991161 -28.65698242 314.47338867 C-30.45442236 312.67052659 -32.25722661 310.87315015 -34.06054688 309.07617188 C-35.20605047 307.93000853 -36.35124439 306.78353558 -37.49609375 305.63671875 C-38.30378456 304.83206429 -38.30378456 304.83206429 -39.12779236 304.01115417 C-43.57715667 299.53343583 -44.12953251 297.59070755 -44.26829529 291.30142212 C-44.28467216 290.60352361 -44.30104903 289.9056251 -44.31792217 289.18657815 C-44.37133724 286.83231251 -44.41721034 284.47796749 -44.46264648 282.12353516 C-44.49838389 280.4368925 -44.53422947 278.75025213 -44.57017517 277.06361389 C-44.89365363 261.31894736 -45.07524551 245.57213935 -45.22199917 229.82494545 C-45.32247429 219.3036344 -45.46249077 208.78644223 -45.71459961 198.26757812 C-47.06882072 140.58221176 -41.30879478 90.06025113 -23.8439489 34.97774255 C-21.61153005 27.87873913 -19.6977142 20.69406114 -17.9980402 13.44882774 C-16.65477129 8.11018478 -14.88516387 4.94056886 -11 1 C-7.51440426 -0.74279787 -3.80312605 -0.57244285 0 0 Z " fill="#3F5944" transform="translate(322,151)"/>
    <path d="M0 0 C18.29352381 14.18984144 29.02139894 40.7795909 32.41064453 62.96655273 C35.92560927 92.17094226 28.93377816 121.28476257 11 144.8125 C1.66660845 156.56898358 1.66660845 156.56898358 -5.5625 158.8125 C-11.89971017 158.57778851 -15.7588423 155.44305086 -19.95703125 151.00390625 C-38.84873435 128.90769335 -48.60663337 100.79301318 -46.9375 71.6875 C-44.78720756 46.82474369 -35.98897589 25.47160709 -20.125 6.4375 C-19.44111206 5.61366821 -19.44111206 5.61366821 -18.7434082 4.77319336 C-13.47655552 -1.34155566 -7.60454609 -3.39777591 0 0 Z M-7.9375 27.6875 C-21.91520918 46.54043667 -26.38411339 69.60770878 -23.43359375 92.6171875 C-21.0889656 104.64847937 -16.71795599 118.0272023 -8.9375 127.6875 C-7.6175 127.6875 -6.2975 127.6875 -4.9375 127.6875 C8.43447492 106.1529796 13.87762163 82.3600835 8.1015625 57.3125 C5.08582037 46.79141469 1.00144814 36.28964963 -5.9375 27.6875 C-6.5975 27.6875 -7.2575 27.6875 -7.9375 27.6875 Z " fill="#3F5944" transform="translate(261.9375,62.3125)"/>
    <path d="M0 0 C2.08954415 1.72857667 3.5185478 3.52928311 4.73046875 5.953125 C6.4480606 30.89123749 -2.49105559 53.89892776 -18.26953125 72.953125 C-33.62221049 90.49217953 -54.41079664 101.21994668 -77.45703125 104.703125 C-92.8767271 105.7142526 -92.8767271 105.7142526 -96.89453125 103.203125 C-99.78257622 100.4670824 -101.0764172 98.50556134 -101.5703125 94.53515625 C-101.67670033 69.39216683 -92.60606339 45.58938797 -74.94921875 27.59765625 C-74.06492187 26.72496094 -73.180625 25.85226562 -72.26953125 24.953125 C-71.52960938 24.21449219 -70.7896875 23.47585938 -70.02734375 22.71484375 C-55.38860104 8.90723845 -20.79623768 -9.5927568 0 0 Z M-55.26953125 39.953125 C-55.96820313 40.56929688 -56.666875 41.18546875 -57.38671875 41.8203125 C-67.07353068 50.90405443 -76.70299097 65.17469625 -77.42578125 78.92578125 C-77.37421875 79.59480469 -77.32265625 80.26382813 -77.26953125 80.953125 C-59.04640434 77.6398292 -42.40305391 67.86489129 -31.26953125 52.953125 C-25.27354272 43.78343558 -18.77929001 33.24910022 -19.26953125 21.953125 C-32.0691473 21.953125 -46.18067563 31.85017914 -55.26953125 39.953125 Z " fill="#3F5944" transform="translate(170.26953125,253.046875)"/>
    <path d="M0 0 C3.17996539 2.15680432 6.10004727 4.48275479 9 7 C9.79664063 7.65355469 10.59328125 8.30710938 11.4140625 8.98046875 C26.53395555 21.8300373 36.25858647 38.80975261 41 58 C41.22429687 58.89847656 41.44859375 59.79695313 41.6796875 60.72265625 C43.36479807 68.55957458 45.09939908 79.33610419 41.73046875 86.8203125 C39.83292951 89.21044093 38.89467242 90.08852875 36 91 C14.61524728 93.20514237 -7.96068862 85.89868343 -25 73 C-45.26111091 55.97342149 -60.26965574 34.12455555 -62.8671875 7.1328125 C-62.91101563 6.42898437 -62.95484375 5.72515625 -63 5 C-63.06445312 4.02804688 -63.12890625 3.05609375 -63.1953125 2.0546875 C-63.37466075 -2.81162848 -63.39145271 -6.15910158 -61.3125 -10.625 C-47.55139321 -24.7580286 -13.94825853 -8.50941767 0 0 Z M-40 9 C-37.32943226 22.88695223 -31.47156778 34.53329564 -22 45 C-20.98486328 46.15435547 -20.98486328 46.15435547 -19.94921875 47.33203125 C-9.81547636 58.20681513 4.22677676 65.90841102 19 68 C18.4867578 62.2260252 17.36572596 57.53076706 15 52.25 C14.69312256 51.55970703 14.38624512 50.86941406 14.07006836 50.15820312 C10.91736163 43.36751625 6.88208079 37.69291589 2 32 C1.07960938 30.91138672 1.07960938 30.91138672 0.140625 29.80078125 C-9.74890461 19.04486122 -25.28696317 10.02649094 -40 9 Z " fill="#3F5944" transform="translate(132,132)"/>
    <path d="M0 0 C23.94405582 7.99932796 43.63861787 25.90858435 54.96679688 48.36669922 C61.11491617 62.01619232 65.65200656 78.24598222 63.96679688 93.36669922 C61.92326619 97.52674383 60.23942457 99.66987749 55.96679688 101.36669922 C35.25870228 103.94266575 12.50095044 95.36423954 -4.03320312 83.36669922 C-8.31674045 79.98222176 -12.20174002 76.24909758 -16.03320312 72.36669922 C-16.77183594 71.62677734 -17.51046875 70.88685547 -18.27148438 70.12451172 C-34.80343278 52.59743632 -42.24826945 29.48173054 -42.66210938 5.81982422 C-41.83150825 1.25925654 -40.27267898 -0.36939449 -37.03320312 -3.63330078 C-26.95856071 -8.67062199 -10.05567253 -3.13213431 0 0 Z M-18.03320312 18.36669922 C-17.76489888 33.39173705 -8.76176206 47.3750937 1.37695312 57.85888672 C12.3095698 68.15044663 24.9562039 75.23206119 39.96679688 77.36669922 C38.95797764 59.88049911 27.49995574 45.17785862 15.15429688 33.67919922 C5.90075854 25.8944765 -5.88533331 19.67998244 -18.03320312 18.36669922 Z " fill="#3F5944" transform="translate(376.033203125,256.63330078125)"/>
    <path d="M0 0 C5.2715966 7.20451535 3.13364644 16.35901432 1.875 24.625 C-1.6198577 45.23652291 -11.19665854 62.39087148 -26 77 C-26.73992187 77.73863281 -27.47984375 78.47726563 -28.2421875 79.23828125 C-45.71959305 95.72337989 -68.97939785 103.45771723 -92.64453125 103.43359375 C-96.26204163 102.96613897 -98.1531743 102.25394997 -101 100 C-105.25980965 94.19584848 -103.37867158 84.0611938 -102.53515625 77.2421875 C-98.0939097 52.48683689 -85.67987352 30.91286549 -65.5625 15.5625 C-50.41744249 5.37722741 -17.38983184 -12.42130846 0 0 Z M-61.18359375 42.0859375 C-69.75804419 51.07824615 -78.67383364 65.11987741 -79.09375 77.83984375 C-79.0628125 78.55269531 -79.031875 79.26554687 -79 80 C-65.80953375 77.46337187 -54.02296289 71.98675432 -44 63 C-43.25234375 62.33355469 -42.5046875 61.66710937 -41.734375 60.98046875 C-31.74865327 51.55517018 -21.59517737 37.32324942 -20.84375 23.02734375 C-20.8953125 22.35832031 -20.946875 21.68929687 -21 21 C-36.04924713 21 -50.90326133 32.2653695 -61.18359375 42.0859375 Z " fill="#3F5944" transform="translate(437,120)"/>
    <path d="M0 0 C3.12866288 2.93164662 4.26373153 5.15854067 4.50336456 9.34944153 C4.52534769 11.12581068 4.52524172 12.90253422 4.50793457 14.67895508 C4.51729451 16.15015037 4.51729451 16.15015037 4.52684355 17.65106678 C4.54281089 20.94079876 4.53015427 24.22979364 4.51757812 27.51953125 C4.52299756 29.87666252 4.53011921 32.23379041 4.53881836 34.59091187 C4.55707569 40.99579017 4.54997405 47.40041115 4.53730202 53.80529404 C4.53019486 57.80465928 4.53153047 61.80400686 4.53526306 65.80337524 C4.53587599 66.46734088 4.53648893 67.13130651 4.53712043 67.81539232 C4.53839934 69.16423601 4.53969619 70.51307968 4.5410108 71.86192334 C4.55241633 84.5093444 4.53930336 97.15664948 4.51780933 109.80405152 C4.49993833 120.65555857 4.50304245 131.50689447 4.52148438 142.35839844 C4.54289161 154.96062761 4.5513177 167.56275514 4.53903532 180.16499996 C4.53776113 181.50887488 4.53650364 182.85274981 4.53526306 184.19662476 C4.53464596 184.85783272 4.53402886 185.51904069 4.53339306 186.20028526 C4.52993969 190.85927924 4.5359635 195.5181733 4.54518127 200.17715454 C4.55672125 206.44808332 4.5487475 212.71868832 4.52560425 218.98958206 C4.52030731 221.29343757 4.52184767 223.59732025 4.53065491 225.90116501 C4.54155464 229.04149502 4.52791335 232.18078174 4.50793457 235.32104492 C4.5213189 236.6948241 4.5213189 236.6948241 4.53497362 238.09635639 C4.48338907 242.26469851 4.3531032 244.43658282 2.09325409 248.04243469 C-1.6061526 251.50203868 -4.61714415 251.3283624 -9.515625 251.29296875 C-12.97198834 250.88537873 -14.68663869 249.53723498 -17 247 C-18.73532096 243.52935808 -18.14793291 239.50275648 -18.14717102 235.68180847 C-18.15084771 234.70357488 -18.1545244 233.7253413 -18.1583125 232.71746427 C-18.1693817 229.41865261 -18.17319864 226.11987241 -18.17700195 222.82104492 C-18.1832641 220.46435953 -18.18991067 218.10767513 -18.19691467 215.75099182 C-18.2161654 208.66386846 -18.22674594 201.57674863 -18.23564246 194.48960564 C-18.2400241 191.15348833 -18.24539121 187.81737253 -18.25063133 184.48125648 C-18.26764396 173.39365945 -18.28213878 162.3060634 -18.28938007 151.21845531 C-18.29129002 148.34054246 -18.29321034 145.46262962 -18.29516602 142.5847168 C-18.29564976 141.86941181 -18.2961335 141.15410682 -18.2966319 140.41712592 C-18.30493463 128.82609957 -18.33027546 117.23517635 -18.36274669 105.64419504 C-18.39580044 93.74846495 -18.41382729 81.85278731 -18.41702431 69.95701104 C-18.41919094 63.27613034 -18.42840326 56.59537988 -18.45348549 49.91454124 C-18.47669323 43.63138037 -18.48102879 37.34849063 -18.47072411 31.06529808 C-18.47022688 28.75659282 -18.47660201 26.44787454 -18.49028015 24.13920975 C-18.50788507 20.9921921 -18.50094875 17.84615953 -18.48774719 14.69914246 C-18.49871644 13.78124331 -18.50968568 12.86334417 -18.52098733 11.9176299 C-18.47898665 7.78291793 -18.35286779 5.57267213 -16.1413908 1.98364735 C-11.3501583 -2.45464371 -5.74001437 -2.96296288 0 0 Z " fill="#3F5944" transform="translate(263,233)"/>
    <path d="M0 0 C21.21013316 10.3203668 36.34381609 27.62356141 44.35546875 49.7421875 C50.73402857 70.05225884 50.02857183 91.63002828 41 111 C37.85179187 114.4410647 35.9706787 115.81590576 31.375 116.6875 C21.68446384 116.02046501 13.16797971 108.96849923 6 103 C5.2575 102.47792969 4.515 101.95585937 3.75 101.41796875 C2.88375 100.71607422 2.88375 100.71607422 2 100 C2 99.34 2 98.68 2 98 C1.34 98 0.68 98 0 98 C-15.06024776 82.65693068 -23.41317877 60.72980259 -23.375 39.4375 C-23.37338867 38.4872998 -23.37177734 37.53709961 -23.37011719 36.55810547 C-23.17593985 25.19873119 -21.42037385 12.63056078 -15 3 C-10.30356717 -1.47799409 -6.01430291 -2.01333502 0 0 Z M0 27 C-3.34710375 44.65327301 0.37762632 60.09416251 10 75 C13.98661569 80.36516505 18.19757032 84.66360293 24 88 C28.03913167 79.92173666 25.55179309 65.74405785 22.9375 57.4375 C20.62979619 50.64245392 17.30504501 44.72407989 13 39 C12.24009766 37.98486328 12.24009766 37.98486328 11.46484375 36.94921875 C8.13161207 32.79823423 4.43527854 29.92728383 0 27 Z " fill="#3F5944" transform="translate(149,29)"/>
    <path d="M0 0 C8.31470082 8.11567872 10.06876622 23.85010502 10.24145508 34.92749023 C10.32008766 58.60039023 2.80270966 80.07309676 -13.56835938 97.56835938 C-21.46601385 105.46601385 -32.93590808 114.84096379 -44.375 115.6875 C-48.86661751 114.83564151 -51.42672915 113.73962591 -54 110 C-62.8774493 90.49912107 -64.18677487 67.25450476 -57 47 C-53.1460321 36.90224808 -48.42444047 27.94690109 -41 20 C-40.26265625 19.17242187 -39.5253125 18.34484375 -38.765625 17.4921875 C-30.53370069 8.69532721 -12.95156886 -7.46987414 0 0 Z M-24 35 C-34.14020761 47.09845038 -40.38547689 63.06701572 -39 79 C-38.73732892 81.35528401 -38.39795565 83.66201055 -38 86 C-34.18142858 86 -32.72777166 84.51182501 -29.96484375 82.0234375 C-18.36533717 70.07802118 -11.95574285 54.72767116 -11.75 38.0625 C-11.87090043 33.97606536 -12.28472431 30.02342574 -13 26 C-16.57752991 26 -21.60833169 32.61896132 -24 35 Z " fill="#3F5944" transform="translate(370,30)"/>
    <path d="M0 0 C20.19051989 -0.81304107 39.03431647 6.65611725 53.828125 20.15625 C59.67500075 26.56375784 59.67500075 26.56375784 60.140625 31.40625 C59.59093049 38.00258412 56.27538383 40.96944968 51.453125 45.09375 C34.23178565 58.26152848 13.8905877 62.65442942 -7.44091797 59.85888672 C-23.73131229 57.08851295 -39.24036438 48.91560466 -49.8515625 36.1328125 C-51.88242126 33.09253282 -52.30622331 30.78365434 -52.171875 27.15625 C-49.54947066 18.35246401 -40.63844492 13.08627819 -32.984375 8.90625 C-22.49723941 3.40889723 -11.7312907 0.84397775 0 0 Z M-21.171875 29.15625 C-20.48409109 32.39674663 -20.48409109 32.39674663 -17.4765625 33.5078125 C-9.03719174 36.71952408 -9.03719174 36.71952408 -0.171875 38.15625 C1.1275 38.259375 2.426875 38.3625 3.765625 38.46875 C11.79598204 38.39928324 21.86560837 36.12971707 28.828125 32.15625 C28.828125 31.49625 28.828125 30.83625 28.828125 30.15625 C13.44574301 21.40940534 -5.47942474 20.53747347 -21.171875 29.15625 Z " fill="#3F5944" transform="translate(429.171875,205.84375)"/>
    <path d="M0 0 C9.57711764 8.36429489 9.57711764 8.36429489 10.43359375 15.09375 C9.79166554 20.32087972 7.32900508 23.41959286 3.5078125 26.96484375 C-14.63001092 40.63720027 -34.57587062 46.2785909 -57.28613281 43.36328125 C-71.53443746 40.93526048 -84.37897656 34.42495825 -95.00390625 24.65625 C-95.64585938 24.09164062 -96.2878125 23.52703125 -96.94921875 22.9453125 C-100.1804589 19.74413039 -101.43611652 17.2296587 -101.75390625 12.65625 C-101.41898618 8.21520986 -100.37128648 5.58261047 -97.22265625 2.44140625 C-68.53784311 -20.63774799 -29.67112261 -23.15042077 0 0 Z M-71.00390625 12.65625 C-70.67390625 13.64625 -70.34390625 14.63625 -70.00390625 15.65625 C-66.96813802 17.10768101 -66.96813802 17.10768101 -63.31640625 18.28125 C-61.48529297 18.91933594 -61.48529297 18.91933594 -59.6171875 19.5703125 C-47.70282254 23.15106219 -34.92185934 22.36694409 -23.578125 17.05078125 C-22.72863281 16.59058594 -21.87914062 16.13039063 -21.00390625 15.65625 C-21.66274798 12.5648859 -21.66274798 12.5648859 -23.9375 11.55859375 C-39.84833241 5.42758657 -55.37673177 4.84266276 -71.00390625 12.65625 Z " fill="#3F5944" transform="translate(127.00390625,222.34375)"/>
  </g>
</svg>
